<?xml version="1.0" encoding="UTF-8" standalone="no"?>
<!DOCTYPE svg PUBLIC "-//W3C//DTD SVG 1.1//EN" "http://www.w3.org/Graphics/SVG/1.1/DTD/svg11.dtd">
<svg width="100%" height="100%" viewBox="0 0 32 32" version="1.1" xmlns="http://www.w3.org/2000/svg" xmlns:xlink="http://www.w3.org/1999/xlink" xml:space="preserve" xmlns:serif="http://www.serif.com/" style="fill-rule:evenodd;clip-rule:evenodd;stroke-linecap:round;stroke-miterlimit:1.5;">
    <g transform="matrix(1,0,0,1,0,1)">
        <path d="M3,10L3,20L7.5,20L15,28L15,2L7.5,10L3,10Z" style="fill:rgb(170,170,170);"/>
        <path d="M3,10L3,20L7.5,20L15,28L15,2L7.5,10L3,10ZM7.933,11L4,11L4,19L7.933,19L14,25.471L14,4.529L7.933,11Z" style="fill:rgb(170,170,170);"/>
    </g>
    <g transform="matrix(1,0,0,1,-1,-1)">
        <g transform="matrix(0.818182,2.00397e-16,-2.00397e-16,0.818182,3.95455,4.09091)">
            <path d="M19,28L30,17" style="fill:none;stroke:rgb(170,170,170);stroke-width:3.67px;"/>
        </g>
        <g transform="matrix(0.818182,2.00397e-16,-2.00397e-16,0.818182,3.95455,4.09091)">
            <path d="M30,28L19,17" style="fill:none;stroke:rgb(170,170,170);stroke-width:3.67px;"/>
        </g>
    </g>
</svg>
