<?xml version="1.0" encoding="UTF-8" standalone="no"?>
<!DOCTYPE svg PUBLIC "-//W3C//DTD SVG 1.1//EN" "http://www.w3.org/Graphics/SVG/1.1/DTD/svg11.dtd">
<svg width="100%" height="100%" viewBox="0 0 32 32" version="1.1" xmlns="http://www.w3.org/2000/svg" xmlns:xlink="http://www.w3.org/1999/xlink" xml:space="preserve" xmlns:serif="http://www.serif.com/" style="fill-rule:evenodd;clip-rule:evenodd;stroke-linecap:round;stroke-linejoin:round;stroke-miterlimit:1.5;">
    <g transform="matrix(1,0,0,1,0,1)">
        <path d="M3,10L3,20L7.5,20L15,28L15,2L7.5,10L3,10Z" style="fill:rgb(64,64,64);"/>
        <path d="M3,10L3,20L7.5,20L15,28L15,2L7.5,10L3,10ZM7.933,11L4,11L4,19L7.933,19L14,25.471L14,4.529L7.933,11Z" style="fill:rgb(64,64,64);"/>
    </g>
    <g transform="matrix(1,0,0,1,-1,1)">
        <g transform="matrix(1,0,0,0.90611,-1.53827,1.28167)">
            <path d="M21,12C21.74,14.044 21.695,15.98 21,18" style="fill:none;stroke:rgb(64,64,64);stroke-width:2.1px;"/>
        </g>
        <g transform="matrix(1,0,0,0.90611,-3,1.28167)">
            <path d="M26,8C28.031,12.137 28.038,18.083 26,22" style="fill:none;stroke:rgb(64,64,64);stroke-width:2.1px;"/>
        </g>
        <g transform="matrix(1,0,0,0.90611,-3,1.28167)">
            <path d="M29,3C32.945,9.011 33.016,20.102 29,27" style="fill:none;stroke:rgb(64,64,64);stroke-width:2.1px;"/>
        </g>
    </g>
</svg>
